<?xml version="1.0" encoding="UTF-8"?>
<svg width="16px" height="16px" viewBox="0 0 16 16" version="1.1" xmlns="http://www.w3.org/2000/svg" xmlns:xlink="http://www.w3.org/1999/xlink">
    <!-- Generator: Sketch 52 (66869) - http://www.bohemiancoding.com/sketch -->
    <title>网站管理</title>
    <desc>Created with Sketch.</desc>
    <g id="云梦规范" stroke="none" stroke-width="1" fill="none" fill-rule="evenodd">
        <g id="7.-图标库" transform="translate(-372.000000, -551.000000)">
            <g id="网站管理" transform="translate(372.000000, 551.000000)">
                <rect id="矩形" stroke="#262626" x="0.5" y="0.5" width="15" height="12" rx="2"></rect>
                <path d="M0.5,10.5939231 L15,10.5939231" id="直线-14" stroke="#262626" stroke-linecap="square"></path>
                <path d="M3.5,15.5 L12.5,15.5" id="直线-16" stroke="#262626" stroke-linecap="square"></path>
                <path d="M10.826656,4.333984 C10.9157918,4.4313666 10.9845244,4.54561263 11.0288,4.669984 C11.088632,4.83832755 11.2337292,4.96196342 11.409435,4.99431918 C11.5851408,5.02667494 11.7647612,4.96283497 11.880635,4.82684718 C11.9965088,4.69085938 12.031032,4.50338355 11.9712,4.33504 C11.8825817,4.08600578 11.7453161,3.85708467 11.567392,3.6616 C11.1825635,3.24009942 10.6381422,2.99997332 10.067392,3 L6.01856,3 C4.90576,3 4,3.89696 4,5 C4,6.10304 4.90576,7 6.01856,7 L6.524384,7 C6.80052637,7 7.024384,6.77614237 7.024384,6.5 C7.024384,6.22385763 6.80052637,6 6.524384,6 L6.01856,6 C5.457056,6 5,5.551264 5,5 C5,4.448736 5.457056,4 6.01856,4 L10.067392,4 C10.3561698,3.99967771 10.6317511,4.12090003 10.826656,4.333984 Z" id="路径" fill="#262626" fill-rule="nonzero"></path>
                <path d="M6,12.4748535 C6.19498698,13.8236491 5.86165365,14.8320313 5,15.5" id="路径-19" stroke="#262626" stroke-width="0.8"></path>
                <path d="M10.9460272,12.1914673 C11.1410142,13.6297811 10.8076808,14.6829224 9.94602717,15.3508911" id="路径-19-copy" stroke="#262626" stroke-width="0.8" transform="translate(10.473014, 13.771179) scale(-1, 1) translate(-10.473014, -13.771179) "></path>
                <path d="M10.7869059,7.2624952 L11.7673746,7.2624952 L9.90077202,8.91176154 L8.03444853,7.2624952 L9.08831985,7.2624952 C9.2468471,7.2624952 9.37551094,7.17734789 9.37551094,7.07183927 L9.37551094,4.68216154 L10.4997148,4.68216154 L10.4997148,7.07183927 C10.4997148,7.17734789 10.6280995,7.2624952 10.7869059,7.2624952 Z" id="Path" fill="#262626" transform="translate(9.900912, 6.796962) rotate(146.000000) translate(-9.900912, -6.796962) "></path>
            </g>
        </g>
    </g>
</svg>