<?xml version="1.0" encoding="UTF-8"?>
<svg width="352px" height="287px" viewBox="0 0 352 287" version="1.1" xmlns="http://www.w3.org/2000/svg" xmlns:xlink="http://www.w3.org/1999/xlink">
    <!-- Generator: Sketch 52 (66869) - http://www.bohemiancoding.com/sketch -->
    <title>合并形状</title>
    <desc>Created with Sketch.</desc>
    <defs>
        <linearGradient x1="30.3869095%" y1="22.7667711%" x2="74.2097124%" y2="72.6428003%" id="linearGradient-1">
            <stop stop-color="#00BFEE" offset="0%"></stop>
            <stop stop-color="#00EDC7" offset="100%"></stop>
        </linearGradient>
    </defs>
    <g id="logo" stroke="none" stroke-width="1" fill="none" fill-rule="evenodd">
        <g id="画板-2" transform="translate(-717.000000, -2198.000000)" fill="#ffffff">
            <g id="3-copy-2" transform="translate(355.000000, 1750.000000)">
                <path d="M565.798281,612.800935 C565.86016,612.800312 565.922114,612.8 565.984141,612.8 C575.980495,612.8 584.084141,620.903646 584.084141,630.9 C584.084141,640.896354 575.980495,649 565.984141,649 C565.195035,649 564.417723,648.949503 563.655261,648.851563 C552.242577,648.851562 526.263326,648.851562 485.717501,648.851562 C418.224337,648.851562 381.011431,611.953487 382.956759,543.657227 C384.902086,475.360966 440.744845,448 477.220919,448 C508.069533,448 586.918654,448 713.768282,448 L673.911485,516.206055 L626.258516,516.206055 L647.744845,483.323242 L488.678438,483.323242 C449.326641,484.361654 426.197735,504.472982 419.29172,543.657227 C420.18211,581.548503 438.770652,604.552409 475.057345,612.668945 L565.794297,612.668945 L565.798281,612.800935 Z M512.000092,570.171968 C511.663808,570.190574 511.325075,570.2 510.984141,570.2 C510.697011,570.2 510.411443,570.193314 510.127584,570.18009 C509.933812,570.180931 509.739709,570.181773 509.545274,570.182617 L509.546162,570.143714 C500.222068,569.410847 492.884141,561.612356 492.884141,552.1 C492.884141,542.308688 500.658758,534.333235 510.371457,534.010175 L510.37169,534 C518.495641,534 545.055339,534 590.050781,534 C657.543945,534 694.756851,570.898076 692.811523,639.194336 C690.866196,707.490596 635.023438,734.851562 598.547363,734.851562 C567.698749,734.851562 488.849628,734.851562 362,734.851562 L405.122422,666.645508 L449.509766,666.645508 L428.023438,699.52832 L595.485704,699.52832 C631.584535,694.038737 651.914822,673.927409 656.476563,639.194336 C656.476563,583.178111 612.394395,570.523682 594.490098,569.841309 C590.343168,569.841309 562.8465,569.951528 512.000092,570.171968 Z" id="合并形状"></path>
            </g>
        </g>
    </g>
</svg>