<?xml version="1.0" encoding="UTF-8"?>
<svg width="16px" height="16px" viewBox="0 0 16 16" version="1.1" xmlns="http://www.w3.org/2000/svg" xmlns:xlink="http://www.w3.org/1999/xlink">
    <!-- Generator: Sketch 52 (66869) - http://www.bohemiancoding.com/sketch -->
    <title>系统设置</title>
    <desc>Created with Sketch.</desc>
    <g id="云梦规范" stroke="none" stroke-width="1" fill="none" fill-rule="evenodd">
        <g id="7.-图标库" transform="translate(-1103.000000, -550.000000)" fill-rule="nonzero">
            <g id="系统设置" transform="translate(1103.000000, 550.000000)">
                <g id="设置">
                    <path d="M5,8 C5,6.34578223 6.34578223,5 8,5 C9.65421777,5 11,6.34578223 11,8 C11,9.65421777 9.65421777,11 8,11 C6.34633965,11 5,9.65421777 5,8 Z" id="形状" stroke="#262626" stroke-width="0.8"></path>
                    <path d="M9.53658874,16 L6.46441525,16 C6.23350985,15.9997786 6.04637928,15.8126575 6.04615789,15.5817637 L6.04615789,14.5754264 C6.0497085,14.2902168 5.87919613,14.0315981 5.61565202,13.9224717 C5.56846504,13.9023931 5.52047488,13.8823146 5.47308711,13.862236 C5.2095899,13.7494262 4.90391953,13.8089653 4.70203179,14.0124236 L4.02856318,14.6764215 C3.86399053,14.8382644 3.59946777,14.8363783 3.43721998,14.672205 L1.27967069,12.4836423 C1.11781962,12.3190779 1.11970586,12.0545684 1.2838874,11.8923287 L1.95454488,11.2311418 C2.16167668,11.0296692 2.22437043,10.7219516 2.11257106,10.4555072 C2.10360218,10.43409 2.09476717,10.412606 2.08606603,10.391055 C1.97747966,10.1250976 1.71794533,9.95200388 1.43066902,9.95394481 L0.418257339,9.95394481 C0.187351948,9.95372343 0.000221381181,9.76660225 0,9.53570845 L0,6.46368919 C0.000221381181,6.23279539 0.187351948,6.04567421 0.418257339,6.04545283 L1.41781809,6.04545283 C1.70689025,6.04738159 1.96765665,5.87211203 2.07502227,5.60372458 C2.10192889,5.53646141 2.13044186,5.46859589 2.15975804,5.402939 C2.27779154,5.13706135 2.2202788,4.8259817 2.01498437,4.61987527 L1.33990938,3.93519645 C1.17783642,3.77072203 1.17972397,3.50602947 1.3441261,3.34388294 L3.53279871,1.18644195 C3.69728139,1.02437712 3.96198724,1.02626458 4.12414191,1.19065845 L4.82351317,1.90003388 C5.02361565,2.10398844 5.32751236,2.16603588 5.59155654,2.05684742 L5.60500986,2.0514262 C5.87260666,1.94318446 6.04748752,1.68310197 6.04676028,1.39445581 L6.04676028,0.418236344 C6.04698167,0.187342543 6.23411224,0.000221370068 6.46501764,0 L9.53719112,0 C9.76809651,0.000221370068 9.95522708,0.187342543 9.95544847,0.418236344 L9.95544847,1.37618433 C9.95413202,1.6662394 10.1306221,1.92749535 10.4002108,2.03456022 C10.4594456,2.05825292 10.5190819,2.08315033 10.5775134,2.10844931 C10.8424732,2.22442319 11.1513994,2.16670148 11.3566005,1.96287977 L12.0820752,1.24748077 C12.1601337,1.17006407 12.2656976,1.12674318 12.3756385,1.12700942 L12.3786504,1.12700942 C12.4895873,1.12748628 12.5957254,1.17231075 12.6734184,1.25149648 L14.8309677,3.44005923 C14.9928188,3.60462362 14.9909325,3.8691331 14.826751,4.03137275 L14.098666,4.74918117 C13.8924053,4.94983523 13.829317,5.25595362 13.939435,5.52180406 C13.9513489,5.55031561 13.962995,5.57882717 13.9743735,5.60733872 C14.082024,5.87469115 14.3423599,6.04890356 14.6305736,6.04645677 L15.5825458,6.04645677 C15.8127467,6.04711789 15.9992281,6.23350025 16,6.46368919 L16,9.53570845 C15.9997786,9.76660225 15.8126481,9.95372343 15.5817427,9.95394481 L14.6179235,9.95394481 C14.3316403,9.95098794 14.0724651,10.1228082 13.9637313,10.3876416 C13.9479354,10.4268618 13.9317378,10.4658142 13.9151387,10.5044989 C13.8037642,10.7676539 13.8634442,11.0720783 14.0659363,11.2737084 L14.7699258,11.9877019 C14.9317769,12.1522663 14.9298907,12.4167757 14.7657091,12.5790154 L12.5770365,14.7364564 C12.4124639,14.8982993 12.1479411,14.8964132 11.9856933,14.7322399 L11.3029881,14.040132 C11.1016041,13.8347429 10.7958749,13.7717901 10.529724,13.8809091 C10.4833402,13.9009876 10.4359525,13.9210662 10.3891671,13.9387353 C10.1281327,14.0421399 9.95384209,14.3053698 9.95384211,14.5936978 L9.95384211,15.5811613 C9.95395408,15.8118992 9.76733697,15.9992254 9.53658874,16 Z M6.7481395,15.2972505 L9.2518605,15.2972505 L9.2518605,14.594501 C9.2518605,14.0122228 9.59682742,13.4986133 10.1305423,13.286383 C10.172107,13.2699185 10.2142741,13.252651 10.255638,13.2349819 C10.7868594,13.0092201 11.4022331,13.1333577 11.8043748,13.5474042 L12.2862844,14.0367187 L14.0697514,12.278841 L13.5655535,11.7674401 C13.1621504,11.3629482 13.0448672,10.7539962 13.2691791,10.2286195 C13.2839041,10.1940844 13.2983614,10.1594154 13.312551,10.1246125 C13.527963,9.59398603 14.0450254,9.24820793 14.6177227,9.25179766 L15.2972152,9.25179766 L15.2972152,6.74820234 L14.6297705,6.74820234 C14.0538768,6.75163113 13.5346053,6.40214823 13.3209844,5.86735603 C13.3108108,5.84178933 13.3004363,5.81635649 13.2898611,5.79105752 C13.0684013,5.2605911 13.1932872,4.64868882 13.6049095,4.24741802 L14.1301909,3.72939125 L12.3722249,1.94661614 L11.8501563,2.46223348 C11.4410812,2.86830183 10.8254036,2.98318327 10.2974035,2.75196708 C10.2453974,2.72927831 10.1921865,2.70719189 10.1395781,2.68610941 C9.60236713,2.47364557 9.25011308,1.95385591 9.2518605,1.37618433 L9.2518605,0.7027495 L6.7481395,0.7027495 L6.7481395,1.39425502 C6.74958036,1.9683003 6.40205262,2.48563212 5.87006011,2.70136911 L5.85740998,2.70658953 C5.32956156,2.92477376 4.7221026,2.80068231 4.32212643,2.39296247 L3.82254683,1.88617967 L2.03968223,3.6450613 L2.51496554,4.12694667 C2.92354658,4.53767762 3.03776516,5.15723443 2.80250493,5.68664902 C2.77640149,5.74567997 2.75110124,5.80591564 2.72720655,5.86574975 C2.51380643,6.40143501 1.99426255,6.75192233 1.4176173,6.74920627 L0.70238318,6.74920627 L0.70238318,9.25179766 L1.42966505,9.25179766 C2.00329692,9.24898512 2.52080616,9.59580309 2.73624235,10.1274235 C2.74400645,10.1465651 2.75190441,10.1657067 2.75993624,10.1848482 C2.9830882,10.7161297 2.85870242,11.3298257 2.44629344,11.7323026 L1.97843956,12.1941095 L3.73640551,13.9768846 L4.20707051,13.5126683 C4.61274194,13.1069494 5.22512025,12.9902435 5.75159068,13.2183167 C5.79375777,13.2365881 5.83632645,13.2544581 5.87829273,13.2715248 C6.40618449,13.485763 6.74713552,13.9975655 6.74713552,14.5756271 L6.7481395,15.2972505 Z" id="形状" fill="#262626"></path>
                </g>
            </g>
        </g>
    </g>
</svg>