<?xml version="1.0" encoding="UTF-8"?>
<svg width="17px" height="16px" viewBox="0 0 17 16" version="1.1" xmlns="http://www.w3.org/2000/svg" xmlns:xlink="http://www.w3.org/1999/xlink">
    <!-- Generator: Sketch 52 (66869) - http://www.bohemiancoding.com/sketch -->
    <title>微信公众号</title>
    <desc>Created with Sketch.</desc>
    <g id="云梦规范" stroke="none" stroke-width="1" fill="none" fill-rule="evenodd">
        <g id="7.-图标库" transform="translate(-666.000000, -549.000000)">
            <g id="微信公众号" transform="translate(666.000000, 549.000000)">
                <circle id="椭圆形" fill="#262626" cx="9.5" cy="8.5" r="1"></circle>
                <circle id="椭圆形-copy-10" fill="#262626" cx="12.5" cy="8.5" r="1"></circle>
                <circle id="椭圆形-copy-11" fill="#262626" cx="3.5" cy="5.5" r="1"></circle>
                <circle id="椭圆形-copy-12" fill="#262626" cx="5.5" cy="5.5" r="1"></circle>
                <path d="M9.8038579,4.77713528 C9.73042612,4.71718617 9.66589464,4.66554486 9.61032537,4.62225688 C9.02816356,4.1687579 8.25511174,3.76392339 7.740486,3.60534706 C6.7871391,3.31158357 5.59908728,3.26744669 4.48450108,3.49014731 C4.04174194,3.57861309 3.88102908,3.62784931 3.28884488,3.84649289 C1.49713235,4.50802092 0.241410729,6.6130699 0.820665255,8.07547403 C1.08962307,8.75449335 1.57076324,9.44904343 2.26786271,10.1566609 L2.43196109,10.3232353 L1.93758347,12.0419624 L4.28137722,10.8467319 L4.43952442,10.8986225 C4.85221788,11.0340339 5.14128609,11.1098053 5.28746273,11.1249595 C5.54682382,11.1518474 5.78111359,11.1647207 5.99021348,11.1662323 C5.97470919,11.1348201 5.9591744,11.1025078 5.94365963,11.0693144 C5.69318659,10.5334345 5.54226074,9.95265483 5.54226074,9.34472656 C5.54226074,8.58119047 5.93982655,7.39080591 6.35018518,6.84548556 C7.09703892,5.85300114 8.25265069,5.16606817 9.8038579,4.77713528 Z" id="路径-13" stroke="#262626" stroke-width="0.8"></path>
                <path d="M12.958374,12.1685791 C10.2720133,12.8631592 8.39601644,12.3600464 7.3303833,10.6592407 C5.73193359,8.10803223 8.8668169,6.48944092 8.8668169,6.48944092 C8.8668169,6.48944092 9.70008663,5.96392822 11.1790905,5.96392822 C12.6580944,5.96392822 13.8984985,6.48944092 14.7440796,7.32641602 C15.9845033,8.55421528 15.9430605,9.81796853 14.619751,11.1176758 L15.2488918,13 L12.958374,12.1685791 Z" id="路径-14" stroke="#262626" stroke-width="0.8"></path>
            </g>
        </g>
    </g>
</svg>