<?xml version="1.0" encoding="UTF-8"?>
<svg width="16px" height="16px" viewBox="0 0 16 16" version="1.1" xmlns="http://www.w3.org/2000/svg" xmlns:xlink="http://www.w3.org/1999/xlink">
    <!-- Generator: Sketch 52 (66869) - http://www.bohemiancoding.com/sketch -->
    <title>帮助</title>
    <desc>Created with Sketch.</desc>
    <g id="云梦规范" stroke="none" stroke-width="1" fill="none" fill-rule="evenodd">
        <g id="7.-图标库" transform="translate(-81.000000, -1598.000000)" fill="#FFFFFF">
            <g id="帮助" transform="translate(81.000000, 1598.000000)">
                <g>
                    <path d="M6.41331893,6.36253593 L6.41871902,6.36253593 C6.41871902,5.80419135 6.53601666,5.37298333 6.77024551,5.06840976 C7.03035622,4.70466572 7.45563249,4.52289599 8.04568861,4.52289599 C8.52276715,4.52289599 8.89153536,4.64967922 9.15168465,4.90345022 C9.40317449,5.16571932 9.52909299,5.51244858 9.52909299,5.94380537 C9.52909299,6.25670965 9.40747527,6.56546719 9.16462556,6.86987338 L8.94335693,7.11096235 C8.1277121,7.82141705 7.63769261,8.34576928 7.47291277,8.68433518 C7.29949278,8.99723946 7.21278278,9.39899243 7.21278278,9.88948249 L7.21278278,10.1052632 L8.60515708,10.1052632 L8.60515708,9.88948249 C8.60515708,9.5765968 8.67423964,9.29733153 8.81311836,9.05205862 C8.93473607,8.80682288 9.11677691,8.58685826 9.35997376,8.3922577 C9.97593102,7.86792406 10.340032,7.53819097 10.4530096,7.4027237 C10.7825886,6.98834448 10.9473684,6.47250893 10.9473684,5.85503107 C10.9473684,5.0854245 10.686872,4.4806101 10.1666313,4.04088541 C9.65503074,3.59253244 8.9778982,3.36842105 8.13671867,3.36842105 C7.17357427,3.36842105 6.4187383,3.63902088 5.87257719,4.18035069 C5.34369636,4.69566557 5.07099187,5.39295474 5.05371159,6.27216243 C5.05299802,6.28343123 5.05263158,6.29488597 5.05263158,6.30634072 C5.05263158,6.31152882 5.05263158,6.31675412 5.05299802,6.32177488 C5.05263158,6.33531231 5.05263158,6.34883115 5.05263158,6.36253593 L5.05513877,6.36253593 C5.08429925,6.7031845 5.37715764,6.97082765 5.73443136,6.97082765 C6.09131934,6.97082765 6.38417773,6.7031845 6.41331893,6.36253593 Z" id="路径"></path>
                    <path d="M8,0 C3.58185584,0 0,3.58169198 0,8 C0,12.4184901 3.58185584,16 8,16 C12.4184719,16 16,12.4184901 16,8 C16,3.58169198 12.4184537,0 8,0 Z M8,14.9565423 C4.15793523,14.9565423 1.04345767,11.8420648 1.04345767,8.00000002 C1.04345767,4.15793524 4.15793523,1.04347591 8,1.04347591 C11.8420466,1.04347591 14.9565241,4.15793524 14.9565241,8.00000002 C14.9565241,11.8420648 11.8420284,14.9565423 8,14.9565423 Z" id="形状" fill-rule="nonzero"></path>
                    <path d="M8.18057728,11.1830971 C8.34089419,11.3321883 8.42105263,11.5321848 8.42105263,11.7836564 C8.42105263,12.0190917 8.33709005,12.2232311 8.16918188,12.3958502 C8.00095104,12.5530027 7.80228715,12.6315789 7.57324117,12.6315789 C7.33626426,12.6315789 7.13792305,12.5491188 6.97730046,12.3842502 C6.81667788,12.2193817 6.73684211,12.0190917 6.73684211,11.7836564 C6.73684211,11.5321848 6.81667788,11.3321883 6.97730046,11.1830971 C7.13033177,11.0259446 7.32863903,10.9473684 7.57324117,10.9473684 C7.82511192,10.9473684 8.02786865,11.0259447 8.18057728,11.1830971 Z" id="路径"></path>
                </g>
            </g>
        </g>
    </g>
</svg>