<?xml version="1.0" encoding="UTF-8"?>
<svg width="16px" height="16px" viewBox="0 0 16 16" version="1.1" xmlns="http://www.w3.org/2000/svg" xmlns:xlink="http://www.w3.org/1999/xlink">
    <!-- Generator: Sketch 52 (66869) - http://www.bohemiancoding.com/sketch -->
    <title>帮助 copy 29</title>
    <desc>Created with Sketch.</desc>
    <g id="云梦规范" stroke="none" stroke-width="1" fill="none" fill-rule="evenodd">
        <g id="7.-图标库" transform="translate(-232.000000, -1598.000000)" fill="#FFFFFF">
            <g id="通知" transform="translate(232.000000, 1598.000000)">
                <g id="帮助" transform="translate(1.000000, 0.000000)">
                    <path d="M6.73866356,15.9999961 C6.45812743,16.0005247 6.18002202,15.9479627 5.91900747,15.8450809 C6.18002202,15.9479627 6.45812743,16.0005247 6.73866356,15.9999961 Z M5.5082687,15.6309336 C5.44377597,15.5885435 5.38146349,15.5429222 5.32156926,15.4942438 C5.38146159,15.5429247 5.4437742,15.5885461 5.5082687,15.6309336 Z M5.91900747,15.8450809 C5.81047923,15.8022463 5.70543102,15.7510623 5.60480598,15.6919884 C5.70543102,15.7510623 5.81047923,15.8022463 5.91900747,15.8450809 Z M13.4161285,13.2880705 L12.0809998,10.2972978 L12.0809998,6.27770661 C12.0771177,3.78083681 10.3487747,1.61819063 7.91532541,1.06526914 C7.77598388,0.455632647 7.30240481,0 6.73866356,0 C6.17492231,0 5.70134325,0.455632647 5.56200171,1.06526914 C3.12855243,1.61819063 1.40020943,3.78083681 1.39632732,6.27770661 L1.39632732,10.2972978 L0.06119863,13.2871593 C-0.0357066545,13.5040998 -0.0166117328,13.755328 0.111967098,13.9551101 C0.24054593,14.1548922 0.461229939,14.2762258 0.698708922,14.2777046 L12.7749753,14.2777046 C13.0124543,14.2762258 13.2331383,14.1548922 13.3617171,13.9551101 C13.4902959,13.755328 13.5093909,13.5040998 13.4124856,13.2871593 L13.4161285,13.2880705 Z M6.73866356,0.717165783 C6.89069408,0.727614002 7.02742377,0.813462408 7.10295516,0.945893372 C6.98273894,0.937691982 6.86161197,0.932224388 6.73866356,0.932224404 C6.61571516,0.93222442 6.49549892,0.937691998 6.37437197,0.945893372 C6.44990336,0.813462408 6.58663305,0.727614002 6.73866356,0.717165783 Z M8.49454905,13.2734903 L1.16682361,13.2734903 L2.3443962,10.6362885 C2.38129745,10.5537364 2.40023432,10.4642769 2.39995066,10.3738441 L2.39995066,6.27770661 C2.4343113,3.90486602 4.36651517,1.99933422 6.7382082,1.99933422 C9.10990122,1.99933422 11.0421051,3.90486602 11.0764657,6.27770661 L11.0764657,10.3729328 C11.076339,10.4637388 11.0955898,10.5535254 11.1329309,10.6362885 L12.3105035,13.2734903 L8.49454905,13.2734903 Z" id="形状" fill-rule="nonzero"></path>
                    <path d="M6.81114551,14.8198454 C6.34677117,14.8177087 5.92446531,14.5452918 5.72396558,14.1185382 L4.70588235,14.1185382 C4.7931881,14.4747858 4.96600482,14.8033505 5.20880148,15.0747042 C5.33339019,15.2142951 5.47473637,15.3373458 5.62950425,15.4409523 C5.66040826,15.461745 5.69189537,15.4816465 5.72396558,15.500657 C5.82004043,15.5583422 5.92033852,15.608393 6.02396776,15.6503642 C6.27463978,15.750971 6.54172544,15.8023707 6.81114551,15.8018537 C7.807587,15.794766 8.6732953,15.102201 8.91640867,14.1176471 L7.89832544,14.1176471 C7.69807581,14.5447477 7.27571849,14.817544 6.81114551,14.8198454 Z" id="路径"></path>
                </g>
            </g>
        </g>
    </g>
</svg>